 http://www.torrentday.com - Your Key To The Scene.

 
http://www.torrentday.com :  Clean RAR Scene Releases!


Enjoy =)

...................................NFO:....................................

.      *********** ****    ****      ***      ******** *********** ****    *** **********
           *+*     +*+*+* *+*+*+   *+* *+*   *+*    *+*    *+*     *+*+*   *+* *+*        
           +*+     +*+ +*+*+ +*+  +*+   +*+  +*+           +*+     *+*+*+  +*+ +*+        
           +$+     +$+  +*+  +$+ +$++*++$++* *$*           +$+     +$+ +*+ +$+ +$++*++$  
           +$+     +$+       +$+ +$+     +$+ +$+   +$+$    +$+     +$+  +$+$+$ +$+        
           $+$     $+$       $+$ $+$     $+$ $+$    $+$    $+$     $+$   $+$+$ $+$        
       $$$$$$$$$$$ $$$       $$$ $$$     $$$  $$$$$$$$ $$$$$$$$$$$ $$$    $$$$ $$$$$$$$$$     
                                                



                           Another Fine Release Brought to you from - IMAGiNE                   
                                              http://imaginegroup.me/  
    
********************************************************************************************************************                                
                            Tooth Fairy 2010 R5 LiNE XViD - IMAGiNE
********************************************************************************************************************

Ripper ...........: IMAGiNE                                        IMDB Rating.......:4.0/10                             
Video Codec.......: XVID                                         Release Date......:21/02/10
Audio Codec.......:MP3                                           Theatre Date......:22/01/10
Audio Bitrate.....:128                                              Runtime.......:1h 37mn
Subtitles.........:NIL                                                 Language..........:ENGLISH
Resolution...... 720 x 384                                      IMDb URL..........:http://www.imdb.com/title/tt0808510/


[color=yellow]DETAILS:[/color]

Video
ID                               : 0
Format                           : MPEG-4 Visual
Format profile                   : Advanced Simple@L5
Format settings, BVOP            : Yes
Format settings, QPel            : No
Format settings, GMC             : No warppoints
Format settings, Matrix          : Default (MPEG)
Muxing mode                      : Packed bitstream
Codec ID                         : XVID
Codec ID/Hint                    : XviD
Duration                         : 1h 37mn
Bit rate                         : 1 885 Kbps
Width                            : 720 pixels
Height                           : 384 pixels
Display aspect ratio             : 1.875
Frame rate                       : 25.000 fps
Resolution                       : 8 bits
Colorimetry                      : 4:2:0
Scan type                        : Progressive
Bits/(Pixel*Frame)               : 0.273
Stream size                      : 1.28 GiB (93%)
Writing library                  : XviD 1.2.1 (UTC 2008-12-04)

Audio
ID                               : 1
Format                           : MPEG Audio
Format version                   : Version 1
Format profile                   : Layer 3
Mode                             : Joint stereo
Format_Settings_ModeExtension    : MS Stereo
Codec ID                         : 55
Codec ID/Hint                    : MP3
Duration                         : 1h 37mn
Bit rate mode                    : Constant
Bit rate                         : 128 Kbps
Channel(s)                       : 2 channels
Sampling rate                    : 48.0 KHz
Stream size                      : 89.1 MiB (6%)
Alignment                        : Split accross interleaves
Interleave, duration             : 40 ms (1.00 video frame)
Interleave, preload duration     : 500 ms


[color=yellow]NOTES:[/color]

IMAGiNE bringing you another release.....
Here's our version of the tooth fairy 2010.....sources used were the russian dvd and Rx's audio (thanks)
Audio was really nice and insync,but thought there was a faint hiss in the background ...so we edited it in
adobe and ran a hiss removal filter and also slightly changed the EQ.
Video......well this was one of the better R5's,better colouring,better contrast....really nice.Still we slightly tweaked it 
and made it a touch sharper and brighter,whilst lowering the colouring as it looked a tad too rich (everyone's got their own taste).

Another thing....this doesn't have audio for the end credits ...sorry.But after speaking to a few grps it seems no one captured it so....

Anyway if you have any of the other you might not want this as there is only some slight difference between them all so .....
enjoy.

[color=yellow]SCREENS:[/color]

[IMG]http://imagine.takagari.com/TOOTH%20FAIRY%20R5/Tooth%20Fairy%202010%20R5%20LiNE%20XViD%20-%20IMAGiNE.avi_snapshot_00.03.29_%5b2010.02.21_21.09.26%5d.jpg[/IMG]
[IMG]http://imagine.takagari.com/TOOTH%20FAIRY%20R5/Tooth%20Fairy%202010%20R5%20LiNE%20XViD%20-%20IMAGiNE.avi_snapshot_00.06.03_%5b2010.02.21_21.10.13%5d.jpg[/IMG]
[IMG]http://imagine.takagari.com/TOOTH%20FAIRY%20R5/Tooth%20Fairy%202010%20R5%20LiNE%20XViD%20-%20IMAGiNE.avi_snapshot_00.35.40_%5b2010.02.21_21.23.58%5d.jpg[/IMG]
[IMG]http://imagine.takagari.com/TOOTH%20FAIRY%20R5/Tooth%20Fairy%202010%20R5%20LiNE%20XViD%20-%20IMAGiNE.avi_snapshot_00.36.23_%5b2010.02.21_21.11.42%5d.jpg[/IMG]
[IMG]http://imagine.takagari.com/TOOTH%20FAIRY%20R5/Tooth%20Fairy%202010%20R5%20LiNE%20XViD%20-%20IMAGiNE.avi_snapshot_01.00.34_%5b2010.02.21_21.13.06%5d.jpg[/IMG]
[IMG]http://imagine.takagari.com/TOOTH%20FAIRY%20R5/Tooth%20Fairy%202010%20R5%20LiNE%20XViD%20-%20IMAGiNE.avi_snapshot_01.08.13_%5b2010.02.21_21.16.20%5d.jpg[/IMG]

[color=yellow]GREETS:[/color]

FLAWL3SS,ViSiON,DEViSE,FUSiON,STG,SecretMyth,BirdFlu,ELEKTRI4KA
And to all the other p2p grps past and present 

Special thanks to Python-Lair for the server :)
And special thanks to supreme-speeds.com for the ripbox :)

[COLOR=RED]Looking for these,syncers,cammer,silver supplier.....Have anything to offer????......
Contact us imaginegroup@hushmail.com[/COLOR]